# xmcd CD database file
#
# Track frame offsets:
#	150
#	18368
#	44551
#	61777
#	90539
#	110591
#	123205
#	142085
#	161158
#	185229
#	210025
#	230252
#
# Disc length: 3258 seconds
#
# Revision: 1
# Processed by: cddbd v1.5.2PL0 Copyright (c) Steve Scherf et al.
# Submitted via: CDex 1.51
#
DISCID=a00cb80c
DTITLE=Zoe Rahman - Where Rivers Meet
DYEAR=2008
DGENRE=Jazz
TTITLE0=O, River
TTITLE1=Invitation Missed
TTITLE2=Sanctuary
TTITLE3=Betrayed
TTITLE4=You Came Like Welcome Rain
TTITLE5=Now You're Gone
TTITLE6=Pilgrim's Song
TTITLE7=Mind's Eye
TTITLE8=Stream Of Joy
TTITLE9=Suddenly It's Dusk Again
TTITLE10=We'll Surely Meet Again
TTITLE11=Do You Wish To Forget?
EXTD=YEAR: 2008
EXTT0=
EXTT1=
EXTT2=
EXTT3=
EXTT4=
EXTT5=
EXTT6=
EXTT7=
EXTT8=
EXTT9=
EXTT10=
EXTT11=
PLAYORDER=
